<svg xmlns="http://www.w3.org/2000/svg" viewBox="0 0 48 48"><defs><linearGradient id="a" x1="24.2" y1="47.593" x2="25.627" y2="0" gradientUnits="userSpaceOnUse"><stop stop-color="#74cb32"/><stop offset="1" stop-color="#abeb6b"/></linearGradient></defs><circle r="24" cy="24" cx="24" fill="url(#a)"/><path d="M31.007 10s-2.304 2.235-4.795 3.136C7.762 19.81 15.543 32.814 15.797 32.857c0 0 1.035-1.802 2.432-2.83C27.097 23.509 28.9 16.005 28.9 16.005s-1.99 9.03-9.88 14.649c-1.742 1.24-2.922 4.294-3.422 7.347 0 0 1.236-.5 1.767-.635.207-1.351.64-2.646 1.372-3.802 11.027 1.313 14.639-7.572 15.11-10.67C34.961 15.574 31.007 10 31.007 10" fill="#283d16"/></svg>