<svg width="52" height="52" fill="none" xmlns="http://www.w3.org/2000/svg"><g clip-path="url(#clip0_1928_2375)"><path d="M17.879 28.914l12.469-12.469a2.649 2.649 0 013.732 0l1.6 1.6c.123.123.246.287.328.41a2.617 2.617 0 01-.328 3.322l-12.47 12.47c-.04.04-.122.081-.163.163-.41.328-.861.574-1.354.738l-4.963 1.436a.837.837 0 01-.943-.246.93.93 0 01-.287-.944l1.477-4.962a3.572 3.572 0 01.902-1.518zm.984 2.092l-.943 3.2 3.2-.944c.245-.082.491-.205.696-.41l9.393-9.393-2.584-2.543-9.352 9.393c-.04 0-.04.04-.082.082-.164.164-.246.369-.328.615z" fill="#007BFF"/></g><rect x="1" y="1" width="50" height="50" rx="25" stroke="#007BFF" stroke-width="2"/><defs><clipPath id="clip0_1928_2375"><path fill="#fff" transform="translate(14 14)" d="M0 0h24v24H0z"/></clipPath></defs></svg>