<svg width="62" height="40" fill="none" xmlns="http://www.w3.org/2000/svg"><path d="M0 0h42c11.046 0 20 8.954 20 20s-8.954 20-20 20H0V0z" fill="#007BFF"/><g clip-path="url(#clip0_1928_2535)"><path d="M39.344 24.434c.316.351.316.878 0 1.195-.352.351-.88.351-1.196 0L34 21.445l-4.184 4.184c-.351.351-.878.351-1.195 0-.351-.317-.351-.844 0-1.195l4.184-4.184-4.184-4.184c-.351-.351-.351-.878 0-1.195a.77.77 0 011.16 0L34 19.09l4.184-4.184a.77.77 0 011.16 0c.351.317.351.844 0 1.196L35.16 20.25l4.184 4.184z" fill="#fff"/></g><defs><clipPath id="clip0_1928_2535"><path fill="#fff" transform="translate(22 8)" d="M0 0h24v24H0z"/></clipPath></defs></svg>