<svg width="52" height="52" fill="none" xmlns="http://www.w3.org/2000/svg"><rect width="52" height="52" rx="26" fill="#007BFF"/><g clip-path="url(#clip0_1928_2368)"><path d="M33.875 28.094h-5.25v1.968h5.25c.328 0 .656.329.656.657V34c0 .37-.328.656-.656.656h-15.75a.648.648 0 01-.656-.656v-3.281c0-.328.287-.657.656-.657h5.25v-1.968h-5.25a2.617 2.617 0 00-2.625 2.625V34a2.591 2.591 0 002.625 2.625h15.75A2.617 2.617 0 0036.5 34v-3.281a2.643 2.643 0 00-2.625-2.625zm-12.797-5.21l3.938-3.896v11.075c0 .574.41.984.984.984.533 0 .984-.41.984-.985V18.989l3.897 3.897c.164.205.41.287.697.287.246 0 .492-.082.656-.287a.898.898 0 000-1.354l-5.578-5.578a.898.898 0 00-1.353 0l-5.578 5.578a.898.898 0 000 1.354c.369.41.984.41 1.353 0zm12.14 9.475a.998.998 0 00-.984-.984.972.972 0 00-.984.984c0 .575.41.985.984.985.534 0 .985-.41.985-.985z" fill="#fff"/></g><defs><clipPath id="clip0_1928_2368"><path fill="#fff" transform="translate(14 14)" d="M0 0h24v24H0z"/></clipPath></defs></svg>