<svg width="117" height="46" fill="none" xmlns="http://www.w3.org/2000/svg"><rect width="117" height="46" rx="23" fill="#007BFF"/><g clip-path="url(#clip0_1928_2172)"><path d="M36 23.125a2.617 2.617 0 00-2.625 2.625A2.591 2.591 0 0036 28.375a2.617 2.617 0 002.625-2.625A2.643 2.643 0 0036 23.125zm8.572-5.168l-3.445-3.445c-.328-.328-.861-.575-1.354-.575H29.437a2.617 2.617 0 00-2.625 2.626v13.125a2.591 2.591 0 002.625 2.625h13.125a2.617 2.617 0 002.626-2.626V19.352c0-.493-.247-1.026-.616-1.395zm-12.51-2.05h5.907v3.28h-5.907v-3.28zm11.157 13.78c0 .37-.328.657-.657.657H29.438a.648.648 0 01-.657-.657V16.563c0-.328.287-.656.657-.656h.656v4.266c0 .574.41.984.984.984h7.875c.533 0 .984-.41.984-.984V16.07l3.2 3.24c.04.042.082.083.082.165v10.212z" fill="#fff"/></g><path d="M60.79 29.192c1.952 0 3.616-1.088 3.616-3.184 0-1.84-1.265-2.608-2.529-3.216l-1.232-.576c-.928-.448-1.376-.816-1.376-1.552 0-.864.672-1.344 1.617-1.344.8 0 1.407.336 2.063.992.129.112.257.112.369-.032l.656-.784c.111-.128.128-.24 0-.368-.816-.928-1.84-1.456-3.152-1.456-1.825 0-3.297 1.104-3.297 2.992 0 1.504.944 2.352 2.129 2.912l1.36.64c.944.448 1.647.832 1.647 1.792 0 .976-.72 1.536-1.888 1.536-1.056 0-1.744-.448-2.4-1.2-.111-.112-.24-.128-.367.016l-.672.768c-.113.128-.113.24-.033.352.64.912 1.808 1.712 3.488 1.712zm8.861 0c1.28 0 2.208-.56 2.768-1.472l.032 1.04c0 .144.08.24.224.24h1.168c.144 0 .224-.096.224-.24V21.4c0-.144-.08-.24-.224-.24h-1.168c-.144 0-.224.096-.224.24l-.032 1.056c-.544-.912-1.472-1.488-2.768-1.488-2.24 0-3.776 1.792-3.776 4.112 0 2.336 1.536 4.112 3.776 4.112zm-2.096-4.112c0-1.504 1.024-2.528 2.432-2.528 1.392 0 2.368 1.024 2.368 2.544 0 1.504-.976 2.512-2.368 2.512-1.408 0-2.432-1.008-2.432-2.528zM78.965 29h1.296c.128 0 .24-.064.288-.192l2.928-7.376c.064-.176-.016-.272-.192-.272h-1.28a.293.293 0 00-.288.192l-2.096 5.68-2.112-5.68a.273.273 0 00-.272-.192H75.94c-.176 0-.256.096-.192.272l2.928 7.376c.048.128.16.192.288.192zm9.447.192c1.104 0 2.112-.32 2.8-.992.128-.128.16-.224.064-.352l-.448-.608c-.064-.096-.16-.112-.256-.048a3.442 3.442 0 01-2.016.608c-1.552 0-2.48-.832-2.688-2.08h5.28c.592 0 .736-.336.736-1.024 0-1.952-1.36-3.728-3.712-3.728-2.384 0-3.984 1.776-3.984 4.08 0 2.336 1.664 4.144 4.224 4.144zm-2.56-4.72c.176-1.296 1.088-2.048 2.32-2.048 1.232 0 2.08.768 2.176 2.048h-4.496z" fill="#fff"/><defs><clipPath id="clip0_1928_2172"><path fill="#fff" transform="translate(24 11)" d="M0 0h24v24H0z"/></clipPath></defs></svg>