<svg width="52" height="52" fill="none" xmlns="http://www.w3.org/2000/svg"><rect width="52" height="52" rx="26" fill="#007BFF"/><g clip-path="url(#clip0_1936_2279)"><path d="M26.287 31.334a.96.96 0 00-.287.697c0 .287.082.534.287.697.37.41.985.41 1.354 0l3.28-3.28a.898.898 0 000-1.354l-3.28-3.282a.898.898 0 00-1.354 0 .898.898 0 000 1.354l1.6 1.6H16.484a.972.972 0 00-.984.984c0 .574.41.984.984.984h11.403l-1.6 1.6zm9.434-11.854l-3.076-3.076a2.61 2.61 0 00-1.846-.779h-7.424c-1.477 0-2.666 1.19-2.625 2.625v6.89c0 .575.41.985.984.985.534 0 .985-.41.944-.984l.04-6.85c0-.37.288-.656.657-.656h6.563v3.24c0 .738.574 1.313 1.312 1.313h3.24V34c0 .37-.328.656-.656.656H23.375a.648.648 0 01-.656-.656l-.041-1.64c.04-.534-.41-.985-.944-.985a.972.972 0 00-.984.984V34a2.591 2.591 0 002.625 2.625h10.5A2.617 2.617 0 0036.5 34V21.326a2.61 2.61 0 00-.78-1.846z" fill="#fff"/></g><defs><clipPath id="clip0_1936_2279"><path fill="#fff" transform="translate(14 14)" d="M0 0h24v24H0z"/></clipPath></defs></svg>