<?xml version="1.0" encoding="utf-8" standalone="no"?>
<!DOCTYPE svg PUBLIC "-//W3C//DTD SVG 1.1//EN"
  "http://www.w3.org/Graphics/SVG/1.1/DTD/svg11.dtd">
<!-- Created with matplotlib (https://matplotlib.org/) -->
<svg height="396pt" version="1.1" viewBox="0 0 576 396" width="576pt" xmlns="http://www.w3.org/2000/svg" xmlns:xlink="http://www.w3.org/1999/xlink">
 <defs>
  <style type="text/css">
*{stroke-linecap:butt;stroke-linejoin:round;}
  </style>
 </defs>
 <g id="figure_1">
  <g id="patch_1">
   <path d="M 0 396 
L 576 396 
L 576 0 
L 0 0 
z
" style="fill:#ffffff;"/>
  </g>
  <g id="axes_1">
   <g id="patch_2">
    <path d="M 72 346.5 
L 518.4 346.5 
L 518.4 47.52 
L 72 47.52 
z
" style="fill:#eaeaf2;"/>
   </g>
   <g id="matplotlib.axis_1">
    <g id="xtick_1">
     <g id="line2d_1">
      <path clip-path="url(#p22ffcd19eb)" d="M 92.290909 346.5 
L 92.290909 47.52 
" style="fill:none;stroke:#ffffff;stroke-linecap:round;"/>
     </g>
     <g id="line2d_2"/>
     <g id="text_1">
      <!-- 0 -->
      <defs>
       <path d="M 4.15625 35.296875 
Q 4.15625 48 6.765625 55.734375 
Q 9.375 63.484375 14.515625 67.671875 
Q 19.671875 71.875 27.484375 71.875 
Q 33.25 71.875 37.59375 69.546875 
Q 41.9375 67.234375 44.765625 62.859375 
Q 47.609375 58.5 49.21875 52.21875 
Q 50.828125 45.953125 50.828125 35.296875 
Q 50.828125 22.703125 48.234375 14.96875 
Q 45.65625 7.234375 40.5 3 
Q 35.359375 -1.21875 27.484375 -1.21875 
Q 17.140625 -1.21875 11.234375 6.203125 
Q 4.15625 15.140625 4.15625 35.296875 
z
M 13.1875 35.296875 
Q 13.1875 17.671875 17.3125 11.828125 
Q 21.4375 6 27.484375 6 
Q 33.546875 6 37.671875 11.859375 
Q 41.796875 17.71875 41.796875 35.296875 
Q 41.796875 52.984375 37.671875 58.78125 
Q 33.546875 64.59375 27.390625 64.59375 
Q 21.34375 64.59375 17.71875 59.46875 
Q 13.1875 52.9375 13.1875 35.296875 
z
" id="ArialMT-48"/>
      </defs>
      <g style="fill:#262626;" transform="translate(89.51044 360.657812)scale(0.1 -0.1)">
       <use xlink:href="#ArialMT-48"/>
      </g>
     </g>
    </g>
    <g id="xtick_2">
     <g id="line2d_3">
      <path clip-path="url(#p22ffcd19eb)" d="M 173.454545 346.5 
L 173.454545 47.52 
" style="fill:none;stroke:#ffffff;stroke-linecap:round;"/>
     </g>
     <g id="line2d_4"/>
     <g id="text_2">
      <!-- 1 -->
      <defs>
       <path d="M 37.25 0 
L 28.46875 0 
L 28.46875 56 
Q 25.296875 52.984375 20.140625 49.953125 
Q 14.984375 46.921875 10.890625 45.40625 
L 10.890625 53.90625 
Q 18.265625 57.375 23.78125 62.296875 
Q 29.296875 67.234375 31.59375 71.875 
L 37.25 71.875 
z
" id="ArialMT-49"/>
      </defs>
      <g style="fill:#262626;" transform="translate(170.674077 360.657812)scale(0.1 -0.1)">
       <use xlink:href="#ArialMT-49"/>
      </g>
     </g>
    </g>
    <g id="xtick_3">
     <g id="line2d_5">
      <path clip-path="url(#p22ffcd19eb)" d="M 254.618182 346.5 
L 254.618182 47.52 
" style="fill:none;stroke:#ffffff;stroke-linecap:round;"/>
     </g>
     <g id="line2d_6"/>
     <g id="text_3">
      <!-- 2 -->
      <defs>
       <path d="M 50.34375 8.453125 
L 50.34375 0 
L 3.03125 0 
Q 2.9375 3.171875 4.046875 6.109375 
Q 5.859375 10.9375 9.828125 15.625 
Q 13.8125 20.3125 21.34375 26.46875 
Q 33.015625 36.03125 37.109375 41.625 
Q 41.21875 47.21875 41.21875 52.203125 
Q 41.21875 57.421875 37.46875 61 
Q 33.734375 64.59375 27.734375 64.59375 
Q 21.390625 64.59375 17.578125 60.78125 
Q 13.765625 56.984375 13.71875 50.25 
L 4.6875 51.171875 
Q 5.609375 61.28125 11.65625 66.578125 
Q 17.71875 71.875 27.9375 71.875 
Q 38.234375 71.875 44.234375 66.15625 
Q 50.25 60.453125 50.25 52 
Q 50.25 47.703125 48.484375 43.546875 
Q 46.734375 39.40625 42.65625 34.8125 
Q 38.578125 30.21875 29.109375 22.21875 
Q 21.1875 15.578125 18.9375 13.203125 
Q 16.703125 10.84375 15.234375 8.453125 
z
" id="ArialMT-50"/>
      </defs>
      <g style="fill:#262626;" transform="translate(251.837713 360.657812)scale(0.1 -0.1)">
       <use xlink:href="#ArialMT-50"/>
      </g>
     </g>
    </g>
    <g id="xtick_4">
     <g id="line2d_7">
      <path clip-path="url(#p22ffcd19eb)" d="M 335.781818 346.5 
L 335.781818 47.52 
" style="fill:none;stroke:#ffffff;stroke-linecap:round;"/>
     </g>
     <g id="line2d_8"/>
     <g id="text_4">
      <!-- 3 -->
      <defs>
       <path d="M 4.203125 18.890625 
L 12.984375 20.0625 
Q 14.5 12.59375 18.140625 9.296875 
Q 21.78125 6 27 6 
Q 33.203125 6 37.46875 10.296875 
Q 41.75 14.59375 41.75 20.953125 
Q 41.75 27 37.796875 30.921875 
Q 33.84375 34.859375 27.734375 34.859375 
Q 25.25 34.859375 21.53125 33.890625 
L 22.515625 41.609375 
Q 23.390625 41.5 23.921875 41.5 
Q 29.546875 41.5 34.03125 44.421875 
Q 38.53125 47.359375 38.53125 53.46875 
Q 38.53125 58.296875 35.25 61.46875 
Q 31.984375 64.65625 26.8125 64.65625 
Q 21.6875 64.65625 18.265625 61.421875 
Q 14.84375 58.203125 13.875 51.765625 
L 5.078125 53.328125 
Q 6.6875 62.15625 12.390625 67.015625 
Q 18.109375 71.875 26.609375 71.875 
Q 32.46875 71.875 37.390625 69.359375 
Q 42.328125 66.84375 44.9375 62.5 
Q 47.5625 58.15625 47.5625 53.265625 
Q 47.5625 48.640625 45.0625 44.828125 
Q 42.578125 41.015625 37.703125 38.765625 
Q 44.046875 37.3125 47.5625 32.6875 
Q 51.078125 28.078125 51.078125 21.140625 
Q 51.078125 11.765625 44.234375 5.25 
Q 37.40625 -1.265625 26.953125 -1.265625 
Q 17.53125 -1.265625 11.296875 4.34375 
Q 5.078125 9.96875 4.203125 18.890625 
z
" id="ArialMT-51"/>
      </defs>
      <g style="fill:#262626;" transform="translate(333.001349 360.657812)scale(0.1 -0.1)">
       <use xlink:href="#ArialMT-51"/>
      </g>
     </g>
    </g>
    <g id="xtick_5">
     <g id="line2d_9">
      <path clip-path="url(#p22ffcd19eb)" d="M 416.945455 346.5 
L 416.945455 47.52 
" style="fill:none;stroke:#ffffff;stroke-linecap:round;"/>
     </g>
     <g id="line2d_10"/>
     <g id="text_5">
      <!-- 4 -->
      <defs>
       <path d="M 32.328125 0 
L 32.328125 17.140625 
L 1.265625 17.140625 
L 1.265625 25.203125 
L 33.9375 71.578125 
L 41.109375 71.578125 
L 41.109375 25.203125 
L 50.78125 25.203125 
L 50.78125 17.140625 
L 41.109375 17.140625 
L 41.109375 0 
z
M 32.328125 25.203125 
L 32.328125 57.46875 
L 9.90625 25.203125 
z
" id="ArialMT-52"/>
      </defs>
      <g style="fill:#262626;" transform="translate(414.164986 360.657812)scale(0.1 -0.1)">
       <use xlink:href="#ArialMT-52"/>
      </g>
     </g>
    </g>
    <g id="xtick_6">
     <g id="line2d_11">
      <path clip-path="url(#p22ffcd19eb)" d="M 498.109091 346.5 
L 498.109091 47.52 
" style="fill:none;stroke:#ffffff;stroke-linecap:round;"/>
     </g>
     <g id="line2d_12"/>
     <g id="text_6">
      <!-- 5 -->
      <defs>
       <path d="M 4.15625 18.75 
L 13.375 19.53125 
Q 14.40625 12.796875 18.140625 9.390625 
Q 21.875 6 27.15625 6 
Q 33.5 6 37.890625 10.78125 
Q 42.28125 15.578125 42.28125 23.484375 
Q 42.28125 31 38.0625 35.34375 
Q 33.84375 39.703125 27 39.703125 
Q 22.75 39.703125 19.328125 37.765625 
Q 15.921875 35.84375 13.96875 32.765625 
L 5.71875 33.84375 
L 12.640625 70.609375 
L 48.25 70.609375 
L 48.25 62.203125 
L 19.671875 62.203125 
L 15.828125 42.96875 
Q 22.265625 47.46875 29.34375 47.46875 
Q 38.71875 47.46875 45.15625 40.96875 
Q 51.609375 34.46875 51.609375 24.265625 
Q 51.609375 14.546875 45.953125 7.46875 
Q 39.0625 -1.21875 27.15625 -1.21875 
Q 17.390625 -1.21875 11.203125 4.25 
Q 5.03125 9.71875 4.15625 18.75 
z
" id="ArialMT-53"/>
      </defs>
      <g style="fill:#262626;" transform="translate(495.328622 360.657812)scale(0.1 -0.1)">
       <use xlink:href="#ArialMT-53"/>
      </g>
     </g>
    </g>
   </g>
   <g id="matplotlib.axis_2">
    <g id="ytick_1">
     <g id="line2d_13">
      <path clip-path="url(#p22ffcd19eb)" d="M 72 320.713969 
L 518.4 320.713969 
" style="fill:none;stroke:#ffffff;stroke-linecap:round;"/>
     </g>
     <g id="line2d_14"/>
     <g id="text_7">
      <!-- 0.0 -->
      <defs>
       <path d="M 9.078125 0 
L 9.078125 10.015625 
L 19.09375 10.015625 
L 19.09375 0 
z
" id="ArialMT-46"/>
      </defs>
      <g style="fill:#262626;" transform="translate(51.1 324.292875)scale(0.1 -0.1)">
       <use xlink:href="#ArialMT-48"/>
       <use x="55.615234" xlink:href="#ArialMT-46"/>
       <use x="83.398438" xlink:href="#ArialMT-48"/>
      </g>
     </g>
    </g>
    <g id="ytick_2">
     <g id="line2d_15">
      <path clip-path="url(#p22ffcd19eb)" d="M 72 285.564832 
L 518.4 285.564832 
" style="fill:none;stroke:#ffffff;stroke-linecap:round;"/>
     </g>
     <g id="line2d_16"/>
     <g id="text_8">
      <!-- 0.5 -->
      <g style="fill:#262626;" transform="translate(51.1 289.143738)scale(0.1 -0.1)">
       <use xlink:href="#ArialMT-48"/>
       <use x="55.615234" xlink:href="#ArialMT-46"/>
       <use x="83.398438" xlink:href="#ArialMT-53"/>
      </g>
     </g>
    </g>
    <g id="ytick_3">
     <g id="line2d_17">
      <path clip-path="url(#p22ffcd19eb)" d="M 72 250.415694 
L 518.4 250.415694 
" style="fill:none;stroke:#ffffff;stroke-linecap:round;"/>
     </g>
     <g id="line2d_18"/>
     <g id="text_9">
      <!-- 1.0 -->
      <g style="fill:#262626;" transform="translate(51.1 253.9946)scale(0.1 -0.1)">
       <use xlink:href="#ArialMT-49"/>
       <use x="55.615234" xlink:href="#ArialMT-46"/>
       <use x="83.398438" xlink:href="#ArialMT-48"/>
      </g>
     </g>
    </g>
    <g id="ytick_4">
     <g id="line2d_19">
      <path clip-path="url(#p22ffcd19eb)" d="M 72 215.266556 
L 518.4 215.266556 
" style="fill:none;stroke:#ffffff;stroke-linecap:round;"/>
     </g>
     <g id="line2d_20"/>
     <g id="text_10">
      <!-- 1.5 -->
      <g style="fill:#262626;" transform="translate(51.1 218.845462)scale(0.1 -0.1)">
       <use xlink:href="#ArialMT-49"/>
       <use x="55.615234" xlink:href="#ArialMT-46"/>
       <use x="83.398438" xlink:href="#ArialMT-53"/>
      </g>
     </g>
    </g>
    <g id="ytick_5">
     <g id="line2d_21">
      <path clip-path="url(#p22ffcd19eb)" d="M 72 180.117418 
L 518.4 180.117418 
" style="fill:none;stroke:#ffffff;stroke-linecap:round;"/>
     </g>
     <g id="line2d_22"/>
     <g id="text_11">
      <!-- 2.0 -->
      <g style="fill:#262626;" transform="translate(51.1 183.696325)scale(0.1 -0.1)">
       <use xlink:href="#ArialMT-50"/>
       <use x="55.615234" xlink:href="#ArialMT-46"/>
       <use x="83.398438" xlink:href="#ArialMT-48"/>
      </g>
     </g>
    </g>
    <g id="ytick_6">
     <g id="line2d_23">
      <path clip-path="url(#p22ffcd19eb)" d="M 72 144.968281 
L 518.4 144.968281 
" style="fill:none;stroke:#ffffff;stroke-linecap:round;"/>
     </g>
     <g id="line2d_24"/>
     <g id="text_12">
      <!-- 2.5 -->
      <g style="fill:#262626;" transform="translate(51.1 148.547187)scale(0.1 -0.1)">
       <use xlink:href="#ArialMT-50"/>
       <use x="55.615234" xlink:href="#ArialMT-46"/>
       <use x="83.398438" xlink:href="#ArialMT-53"/>
      </g>
     </g>
    </g>
    <g id="ytick_7">
     <g id="line2d_25">
      <path clip-path="url(#p22ffcd19eb)" d="M 72 109.819143 
L 518.4 109.819143 
" style="fill:none;stroke:#ffffff;stroke-linecap:round;"/>
     </g>
     <g id="line2d_26"/>
     <g id="text_13">
      <!-- 3.0 -->
      <g style="fill:#262626;" transform="translate(51.1 113.398049)scale(0.1 -0.1)">
       <use xlink:href="#ArialMT-51"/>
       <use x="55.615234" xlink:href="#ArialMT-46"/>
       <use x="83.398438" xlink:href="#ArialMT-48"/>
      </g>
     </g>
    </g>
    <g id="ytick_8">
     <g id="line2d_27">
      <path clip-path="url(#p22ffcd19eb)" d="M 72 74.670005 
L 518.4 74.670005 
" style="fill:none;stroke:#ffffff;stroke-linecap:round;"/>
     </g>
     <g id="line2d_28"/>
     <g id="text_14">
      <!-- 3.5 -->
      <g style="fill:#262626;" transform="translate(51.1 78.248912)scale(0.1 -0.1)">
       <use xlink:href="#ArialMT-51"/>
       <use x="55.615234" xlink:href="#ArialMT-46"/>
       <use x="83.398438" xlink:href="#ArialMT-53"/>
      </g>
     </g>
    </g>
   </g>
   <g id="PathCollection_1">
    <defs>
     <path d="M 0 3.5 
C 0.928211 3.5 1.81853 3.131218 2.474874 2.474874 
C 3.131218 1.81853 3.5 0.928211 3.5 0 
C 3.5 -0.928211 3.131218 -1.81853 2.474874 -2.474874 
C 1.81853 -3.131218 0.928211 -3.5 0 -3.5 
C -0.928211 -3.5 -1.81853 -3.131218 -2.474874 -2.474874 
C -3.131218 -1.81853 -3.5 -0.928211 -3.5 0 
C -3.5 0.928211 -3.131218 1.81853 -2.474874 2.474874 
C -1.81853 3.131218 -0.928211 3.5 0 3.5 
z
" id="mcfb6f856fd" style="stroke:#ff8c00;stroke-opacity:0.5;stroke-width:0.3;"/>
    </defs>
    <g clip-path="url(#p22ffcd19eb)">
     <use style="fill:#ff8c00;fill-opacity:0.5;stroke:#ff8c00;stroke-opacity:0.5;stroke-width:0.3;" x="99.916152" xlink:href="#mcfb6f856fd" y="332.91"/>
     <use style="fill:#ff8c00;fill-opacity:0.5;stroke:#ff8c00;stroke-opacity:0.5;stroke-width:0.3;" x="100.495902" xlink:href="#mcfb6f856fd" y="254.145386"/>
     <use style="fill:#ff8c00;fill-opacity:0.5;stroke:#ff8c00;stroke-opacity:0.5;stroke-width:0.3;" x="116.7315" xlink:href="#mcfb6f856fd" y="262.849822"/>
     <use style="fill:#ff8c00;fill-opacity:0.5;stroke:#ff8c00;stroke-opacity:0.5;stroke-width:0.3;" x="121.118633" xlink:href="#mcfb6f856fd" y="250.347263"/>
     <use style="fill:#ff8c00;fill-opacity:0.5;stroke:#ff8c00;stroke-opacity:0.5;stroke-width:0.3;" x="127.649563" xlink:href="#mcfb6f856fd" y="251.641541"/>
     <use style="fill:#ff8c00;fill-opacity:0.5;stroke:#ff8c00;stroke-opacity:0.5;stroke-width:0.3;" x="140.288822" xlink:href="#mcfb6f856fd" y="179.756618"/>
     <use style="fill:#ff8c00;fill-opacity:0.5;stroke:#ff8c00;stroke-opacity:0.5;stroke-width:0.3;" x="144.611545" xlink:href="#mcfb6f856fd" y="220.789301"/>
     <use style="fill:#ff8c00;fill-opacity:0.5;stroke:#ff8c00;stroke-opacity:0.5;stroke-width:0.3;" x="150.46628" xlink:href="#mcfb6f856fd" y="178.978041"/>
     <use style="fill:#ff8c00;fill-opacity:0.5;stroke:#ff8c00;stroke-opacity:0.5;stroke-width:0.3;" x="177.667978" xlink:href="#mcfb6f856fd" y="144.305662"/>
     <use style="fill:#ff8c00;fill-opacity:0.5;stroke:#ff8c00;stroke-opacity:0.5;stroke-width:0.3;" x="199.652387" xlink:href="#mcfb6f856fd" y="88.330556"/>
     <use style="fill:#ff8c00;fill-opacity:0.5;stroke:#ff8c00;stroke-opacity:0.5;stroke-width:0.3;" x="220.297469" xlink:href="#mcfb6f856fd" y="89.67871"/>
     <use style="fill:#ff8c00;fill-opacity:0.5;stroke:#ff8c00;stroke-opacity:0.5;stroke-width:0.3;" x="238.185752" xlink:href="#mcfb6f856fd" y="96.235505"/>
     <use style="fill:#ff8c00;fill-opacity:0.5;stroke:#ff8c00;stroke-opacity:0.5;stroke-width:0.3;" x="239.891353" xlink:href="#mcfb6f856fd" y="71.575521"/>
     <use style="fill:#ff8c00;fill-opacity:0.5;stroke:#ff8c00;stroke-opacity:0.5;stroke-width:0.3;" x="247.898449" xlink:href="#mcfb6f856fd" y="61.11"/>
     <use style="fill:#ff8c00;fill-opacity:0.5;stroke:#ff8c00;stroke-opacity:0.5;stroke-width:0.3;" x="260.568264" xlink:href="#mcfb6f856fd" y="70.123302"/>
     <use style="fill:#ff8c00;fill-opacity:0.5;stroke:#ff8c00;stroke-opacity:0.5;stroke-width:0.3;" x="264.217729" xlink:href="#mcfb6f856fd" y="66.134534"/>
     <use style="fill:#ff8c00;fill-opacity:0.5;stroke:#ff8c00;stroke-opacity:0.5;stroke-width:0.3;" x="269.646422" xlink:href="#mcfb6f856fd" y="87.823755"/>
     <use style="fill:#ff8c00;fill-opacity:0.5;stroke:#ff8c00;stroke-opacity:0.5;stroke-width:0.3;" x="269.871756" xlink:href="#mcfb6f856fd" y="82.188181"/>
     <use style="fill:#ff8c00;fill-opacity:0.5;stroke:#ff8c00;stroke-opacity:0.5;stroke-width:0.3;" x="277.405008" xlink:href="#mcfb6f856fd" y="92.309934"/>
     <use style="fill:#ff8c00;fill-opacity:0.5;stroke:#ff8c00;stroke-opacity:0.5;stroke-width:0.3;" x="279.567625" xlink:href="#mcfb6f856fd" y="86.921018"/>
     <use style="fill:#ff8c00;fill-opacity:0.5;stroke:#ff8c00;stroke-opacity:0.5;stroke-width:0.3;" x="304.066446" xlink:href="#mcfb6f856fd" y="115.091017"/>
     <use style="fill:#ff8c00;fill-opacity:0.5;stroke:#ff8c00;stroke-opacity:0.5;stroke-width:0.3;" x="306.926084" xlink:href="#mcfb6f856fd" y="137.026709"/>
     <use style="fill:#ff8c00;fill-opacity:0.5;stroke:#ff8c00;stroke-opacity:0.5;stroke-width:0.3;" x="313.414412" xlink:href="#mcfb6f856fd" y="103.271036"/>
     <use style="fill:#ff8c00;fill-opacity:0.5;stroke:#ff8c00;stroke-opacity:0.5;stroke-width:0.3;" x="315.009407" xlink:href="#mcfb6f856fd" y="117.119252"/>
     <use style="fill:#ff8c00;fill-opacity:0.5;stroke:#ff8c00;stroke-opacity:0.5;stroke-width:0.3;" x="322.81372" xlink:href="#mcfb6f856fd" y="151.319304"/>
     <use style="fill:#ff8c00;fill-opacity:0.5;stroke:#ff8c00;stroke-opacity:0.5;stroke-width:0.3;" x="322.971741" xlink:href="#mcfb6f856fd" y="107.352045"/>
     <use style="fill:#ff8c00;fill-opacity:0.5;stroke:#ff8c00;stroke-opacity:0.5;stroke-width:0.3;" x="336.903246" xlink:href="#mcfb6f856fd" y="152.014914"/>
     <use style="fill:#ff8c00;fill-opacity:0.5;stroke:#ff8c00;stroke-opacity:0.5;stroke-width:0.3;" x="340.690482" xlink:href="#mcfb6f856fd" y="136.207722"/>
     <use style="fill:#ff8c00;fill-opacity:0.5;stroke:#ff8c00;stroke-opacity:0.5;stroke-width:0.3;" x="342.653942" xlink:href="#mcfb6f856fd" y="124.23321"/>
     <use style="fill:#ff8c00;fill-opacity:0.5;stroke:#ff8c00;stroke-opacity:0.5;stroke-width:0.3;" x="342.938624" xlink:href="#mcfb6f856fd" y="137.224112"/>
     <use style="fill:#ff8c00;fill-opacity:0.5;stroke:#ff8c00;stroke-opacity:0.5;stroke-width:0.3;" x="351.982494" xlink:href="#mcfb6f856fd" y="126.589561"/>
     <use style="fill:#ff8c00;fill-opacity:0.5;stroke:#ff8c00;stroke-opacity:0.5;stroke-width:0.3;" x="354.406484" xlink:href="#mcfb6f856fd" y="179.518646"/>
     <use style="fill:#ff8c00;fill-opacity:0.5;stroke:#ff8c00;stroke-opacity:0.5;stroke-width:0.3;" x="362.876965" xlink:href="#mcfb6f856fd" y="154.886714"/>
     <use style="fill:#ff8c00;fill-opacity:0.5;stroke:#ff8c00;stroke-opacity:0.5;stroke-width:0.3;" x="364.44795" xlink:href="#mcfb6f856fd" y="179.62513"/>
     <use style="fill:#ff8c00;fill-opacity:0.5;stroke:#ff8c00;stroke-opacity:0.5;stroke-width:0.3;" x="368.985983" xlink:href="#mcfb6f856fd" y="188.71858"/>
     <use style="fill:#ff8c00;fill-opacity:0.5;stroke:#ff8c00;stroke-opacity:0.5;stroke-width:0.3;" x="375.402333" xlink:href="#mcfb6f856fd" y="189.682952"/>
     <use style="fill:#ff8c00;fill-opacity:0.5;stroke:#ff8c00;stroke-opacity:0.5;stroke-width:0.3;" x="382.527757" xlink:href="#mcfb6f856fd" y="191.620189"/>
     <use style="fill:#ff8c00;fill-opacity:0.5;stroke:#ff8c00;stroke-opacity:0.5;stroke-width:0.3;" x="406.489017" xlink:href="#mcfb6f856fd" y="205.648903"/>
     <use style="fill:#ff8c00;fill-opacity:0.5;stroke:#ff8c00;stroke-opacity:0.5;stroke-width:0.3;" x="408.081067" xlink:href="#mcfb6f856fd" y="232.602415"/>
     <use style="fill:#ff8c00;fill-opacity:0.5;stroke:#ff8c00;stroke-opacity:0.5;stroke-width:0.3;" x="409.04384" xlink:href="#mcfb6f856fd" y="189.738262"/>
     <use style="fill:#ff8c00;fill-opacity:0.5;stroke:#ff8c00;stroke-opacity:0.5;stroke-width:0.3;" x="413.587325" xlink:href="#mcfb6f856fd" y="202.065628"/>
     <use style="fill:#ff8c00;fill-opacity:0.5;stroke:#ff8c00;stroke-opacity:0.5;stroke-width:0.3;" x="416.603985" xlink:href="#mcfb6f856fd" y="246.203605"/>
     <use style="fill:#ff8c00;fill-opacity:0.5;stroke:#ff8c00;stroke-opacity:0.5;stroke-width:0.3;" x="430.183181" xlink:href="#mcfb6f856fd" y="189.213606"/>
     <use style="fill:#ff8c00;fill-opacity:0.5;stroke:#ff8c00;stroke-opacity:0.5;stroke-width:0.3;" x="445.357657" xlink:href="#mcfb6f856fd" y="184.300625"/>
     <use style="fill:#ff8c00;fill-opacity:0.5;stroke:#ff8c00;stroke-opacity:0.5;stroke-width:0.3;" x="454.188607" xlink:href="#mcfb6f856fd" y="199.50934"/>
     <use style="fill:#ff8c00;fill-opacity:0.5;stroke:#ff8c00;stroke-opacity:0.5;stroke-width:0.3;" x="467.914854" xlink:href="#mcfb6f856fd" y="225.130664"/>
     <use style="fill:#ff8c00;fill-opacity:0.5;stroke:#ff8c00;stroke-opacity:0.5;stroke-width:0.3;" x="475.281038" xlink:href="#mcfb6f856fd" y="240.6658"/>
     <use style="fill:#ff8c00;fill-opacity:0.5;stroke:#ff8c00;stroke-opacity:0.5;stroke-width:0.3;" x="475.654731" xlink:href="#mcfb6f856fd" y="195.650902"/>
     <use style="fill:#ff8c00;fill-opacity:0.5;stroke:#ff8c00;stroke-opacity:0.5;stroke-width:0.3;" x="483.362778" xlink:href="#mcfb6f856fd" y="221.704446"/>
     <use style="fill:#ff8c00;fill-opacity:0.5;stroke:#ff8c00;stroke-opacity:0.5;stroke-width:0.3;" x="489.432025" xlink:href="#mcfb6f856fd" y="182.853785"/>
    </g>
   </g>
   <g id="line2d_29">
    <path clip-path="url(#p22ffcd19eb)" d="M 92.290909 320.713969 
L 93.102545 317.542214 
L 95.537455 309.738663 
L 99.595636 297.836442 
L 104.465455 284.29295 
L 110.958545 266.96775 
L 117.451636 250.279332 
L 123.944727 234.163201 
L 130.437818 218.613916 
L 136.930909 203.651206 
L 142.612364 191.064766 
L 148.293818 178.976538 
L 153.975273 167.41288 
L 159.656727 156.400396 
L 164.526545 147.419572 
L 169.396364 138.878559 
L 174.266182 130.792231 
L 179.136 123.174439 
L 183.194182 117.193377 
L 187.252364 111.553181 
L 191.310545 106.259853 
L 195.368727 101.3187 
L 199.426909 96.734302 
L 203.485091 92.510486 
L 207.543273 88.650306 
L 211.601455 85.156022 
L 214.848 82.625045 
L 218.094545 80.329553 
L 221.341091 78.269574 
L 224.587636 76.444796 
L 227.834182 74.854563 
L 231.080727 73.497875 
L 234.327273 72.37339 
L 237.573818 71.479424 
L 240.820364 70.81395 
L 244.066909 70.374602 
L 247.313455 70.158678 
L 250.56 70.163141 
L 253.806545 70.384626 
L 257.053091 70.81944 
L 260.299636 71.463574 
L 263.546182 72.312701 
L 266.792727 73.362186 
L 270.039273 74.607093 
L 274.097455 76.430042 
L 278.155636 78.539298 
L 282.213818 80.923342 
L 286.272 83.570006 
L 290.330182 86.466505 
L 295.2 90.253213 
L 300.069818 94.356233 
L 304.939636 98.750332 
L 310.621091 104.209652 
L 316.302545 109.986306 
L 322.795636 116.919521 
L 330.100364 125.059818 
L 339.028364 135.3575 
L 371.493818 173.166747 
L 378.798545 181.134488 
L 385.291636 187.874876 
L 390.973091 193.454496 
L 395.842909 197.966728 
L 400.712727 202.202235 
L 405.582545 206.136304 
L 410.452364 209.745341 
L 414.510545 212.488392 
L 418.568727 214.977874 
L 422.626909 217.202157 
L 426.685091 219.15029 
L 430.743273 220.812025 
L 433.989818 221.928787 
L 437.236364 222.851624 
L 440.482909 223.576326 
L 443.729455 224.099007 
L 446.976 224.416109 
L 450.222545 224.524409 
L 453.469091 224.421022 
L 456.715636 224.103409 
L 459.962182 223.569379 
L 463.208727 222.817093 
L 466.455273 221.845064 
L 469.701818 220.652164 
L 472.948364 219.237624 
L 476.194909 217.601032 
L 479.441455 215.742339 
L 482.688 213.661856 
L 485.934545 211.360251 
L 489.992727 208.173895 
L 494.050909 204.646463 
L 498.109091 200.781613 
L 498.109091 200.781613 
" style="fill:none;stroke:#006ba4;stroke-dasharray:6.475,2.8;stroke-dashoffset:0;stroke-width:1.75;"/>
   </g>
   <g id="line2d_30">
    <path clip-path="url(#p22ffcd19eb)" d="M 92.290909 324.01346 
L 99.595636 303.442067 
L 106.088727 285.774028 
L 112.581818 268.727255 
L 119.074909 252.339129 
L 124.756364 238.567917 
L 130.437818 225.350736 
L 136.119273 212.708243 
L 141.800727 200.659054 
L 146.670545 190.81586 
L 151.540364 181.429493 
L 156.410182 172.507459 
L 161.28 164.055867 
L 166.149818 156.079421 
L 171.019636 148.581431 
L 175.077818 142.700034 
L 179.136 137.15269 
L 183.194182 131.939198 
L 187.252364 127.05876 
L 191.310545 122.510005 
L 195.368727 118.291015 
L 199.426909 114.399349 
L 203.485091 110.832068 
L 207.543273 107.585766 
L 211.601455 104.656587 
L 215.659636 102.04026 
L 219.717818 99.732112 
L 223.776 97.727103 
L 227.834182 96.019841 
L 231.892364 94.604606 
L 235.950545 93.475377 
L 240.008727 92.625845 
L 244.066909 92.04944 
L 248.125091 91.739347 
L 252.183273 91.688524 
L 256.241455 91.889717 
L 260.299636 92.335474 
L 264.357818 93.018157 
L 268.416 93.929947 
L 272.474182 95.06285 
L 276.532364 96.408696 
L 280.590545 97.959135 
L 285.460364 100.07769 
L 290.330182 102.463419 
L 295.2 105.100735 
L 300.069818 107.973554 
L 305.751273 111.600613 
L 311.432727 115.498154 
L 317.925818 120.246991 
L 324.418909 125.267228 
L 331.723636 131.18145 
L 340.651636 138.695876 
L 354.449455 150.640265 
L 369.870545 163.935773 
L 378.798545 171.358227 
L 386.103273 177.175329 
L 392.596364 182.099719 
L 399.089455 186.750824 
L 404.770909 190.567354 
L 410.452364 194.12358 
L 416.133818 197.398336 
L 421.003636 199.966403 
L 425.873455 202.301959 
L 430.743273 204.394507 
L 435.613091 206.234381 
L 440.482909 207.812736 
L 445.352727 209.121529 
L 449.410909 210.001019 
L 453.469091 210.684483 
L 457.527273 211.168511 
L 461.585455 211.45006 
L 465.643636 211.526445 
L 469.701818 211.395336 
L 473.76 211.054744 
L 477.818182 210.503011 
L 481.876364 209.738797 
L 485.934545 208.761061 
L 489.992727 207.569041 
L 494.050909 206.162229 
L 498.109091 204.540347 
L 498.109091 204.540347 
" style="fill:none;stroke:#ff800e;stroke-linecap:round;stroke-width:1.75;"/>
   </g>
   <g id="patch_3">
    <path d="M 72 346.5 
L 72 47.52 
" style="fill:none;"/>
   </g>
   <g id="patch_4">
    <path d="M 518.4 346.5 
L 518.4 47.52 
" style="fill:none;"/>
   </g>
   <g id="patch_5">
    <path d="M 72 346.5 
L 518.4 346.5 
" style="fill:none;"/>
   </g>
   <g id="patch_6">
    <path d="M 72 47.52 
L 518.4 47.52 
" style="fill:none;"/>
   </g>
   <g id="text_15">
    <!-- h=1, Kernel=GaussianKernel -->
    <defs>
     <path d="M 6.59375 0 
L 6.59375 71.578125 
L 15.375 71.578125 
L 15.375 45.90625 
Q 21.53125 53.03125 30.90625 53.03125 
Q 36.671875 53.03125 40.921875 50.75 
Q 45.171875 48.484375 47 44.484375 
Q 48.828125 40.484375 48.828125 32.859375 
L 48.828125 0 
L 40.046875 0 
L 40.046875 32.859375 
Q 40.046875 39.453125 37.1875 42.453125 
Q 34.328125 45.453125 29.109375 45.453125 
Q 25.203125 45.453125 21.75 43.421875 
Q 18.3125 41.40625 16.84375 37.9375 
Q 15.375 34.46875 15.375 28.375 
L 15.375 0 
z
" id="ArialMT-104"/>
     <path d="M 52.828125 42.09375 
L 5.5625 42.09375 
L 5.5625 50.296875 
L 52.828125 50.296875 
z
M 52.828125 20.359375 
L 5.5625 20.359375 
L 5.5625 28.5625 
L 52.828125 28.5625 
z
" id="ArialMT-61"/>
     <path d="M 8.890625 0 
L 8.890625 10.015625 
L 18.890625 10.015625 
L 18.890625 0 
Q 18.890625 -5.515625 16.9375 -8.90625 
Q 14.984375 -12.3125 10.75 -14.15625 
L 8.296875 -10.40625 
Q 11.078125 -9.1875 12.390625 -6.8125 
Q 13.71875 -4.4375 13.875 0 
z
" id="ArialMT-44"/>
     <path id="ArialMT-32"/>
     <path d="M 7.328125 0 
L 7.328125 71.578125 
L 16.796875 71.578125 
L 16.796875 36.078125 
L 52.34375 71.578125 
L 65.1875 71.578125 
L 35.15625 42.578125 
L 66.5 0 
L 54 0 
L 28.515625 36.234375 
L 16.796875 24.8125 
L 16.796875 0 
z
" id="ArialMT-75"/>
     <path d="M 42.09375 16.703125 
L 51.171875 15.578125 
Q 49.03125 7.625 43.21875 3.21875 
Q 37.40625 -1.171875 28.375 -1.171875 
Q 17 -1.171875 10.328125 5.828125 
Q 3.65625 12.84375 3.65625 25.484375 
Q 3.65625 38.578125 10.390625 45.796875 
Q 17.140625 53.03125 27.875 53.03125 
Q 38.28125 53.03125 44.875 45.953125 
Q 51.46875 38.875 51.46875 26.03125 
Q 51.46875 25.25 51.421875 23.6875 
L 12.75 23.6875 
Q 13.234375 15.140625 17.578125 10.59375 
Q 21.921875 6.0625 28.421875 6.0625 
Q 33.25 6.0625 36.671875 8.59375 
Q 40.09375 11.140625 42.09375 16.703125 
z
M 13.234375 30.90625 
L 42.1875 30.90625 
Q 41.609375 37.453125 38.875 40.71875 
Q 34.671875 45.796875 27.984375 45.796875 
Q 21.921875 45.796875 17.796875 41.75 
Q 13.671875 37.703125 13.234375 30.90625 
z
" id="ArialMT-101"/>
     <path d="M 6.5 0 
L 6.5 51.859375 
L 14.40625 51.859375 
L 14.40625 44 
Q 17.4375 49.515625 20 51.265625 
Q 22.5625 53.03125 25.640625 53.03125 
Q 30.078125 53.03125 34.671875 50.203125 
L 31.640625 42.046875 
Q 28.421875 43.953125 25.203125 43.953125 
Q 22.3125 43.953125 20.015625 42.21875 
Q 17.71875 40.484375 16.75 37.40625 
Q 15.28125 32.71875 15.28125 27.15625 
L 15.28125 0 
z
" id="ArialMT-114"/>
     <path d="M 6.59375 0 
L 6.59375 51.859375 
L 14.5 51.859375 
L 14.5 44.484375 
Q 20.21875 53.03125 31 53.03125 
Q 35.6875 53.03125 39.625 51.34375 
Q 43.5625 49.65625 45.515625 46.921875 
Q 47.46875 44.1875 48.25 40.4375 
Q 48.734375 37.984375 48.734375 31.890625 
L 48.734375 0 
L 39.9375 0 
L 39.9375 31.546875 
Q 39.9375 36.921875 38.90625 39.578125 
Q 37.890625 42.234375 35.28125 43.8125 
Q 32.671875 45.40625 29.15625 45.40625 
Q 23.53125 45.40625 19.453125 41.84375 
Q 15.375 38.28125 15.375 28.328125 
L 15.375 0 
z
" id="ArialMT-110"/>
     <path d="M 6.390625 0 
L 6.390625 71.578125 
L 15.1875 71.578125 
L 15.1875 0 
z
" id="ArialMT-108"/>
     <path d="M 41.21875 28.078125 
L 41.21875 36.46875 
L 71.53125 36.53125 
L 71.53125 9.96875 
Q 64.546875 4.390625 57.125 1.578125 
Q 49.703125 -1.21875 41.890625 -1.21875 
Q 31.34375 -1.21875 22.71875 3.296875 
Q 14.109375 7.8125 9.71875 16.359375 
Q 5.328125 24.90625 5.328125 35.453125 
Q 5.328125 45.90625 9.6875 54.953125 
Q 14.0625 64.015625 22.265625 68.40625 
Q 30.46875 72.796875 41.15625 72.796875 
Q 48.921875 72.796875 55.1875 70.28125 
Q 61.46875 67.78125 65.03125 63.28125 
Q 68.609375 58.796875 70.453125 51.5625 
L 61.921875 49.21875 
Q 60.296875 54.6875 57.90625 57.8125 
Q 55.515625 60.9375 51.0625 62.8125 
Q 46.625 64.703125 41.21875 64.703125 
Q 34.71875 64.703125 29.984375 62.71875 
Q 25.25 60.75 22.34375 57.515625 
Q 19.4375 54.296875 17.828125 50.4375 
Q 15.09375 43.796875 15.09375 36.03125 
Q 15.09375 26.46875 18.390625 20.015625 
Q 21.6875 13.578125 27.984375 10.453125 
Q 34.28125 7.328125 41.359375 7.328125 
Q 47.515625 7.328125 53.375 9.6875 
Q 59.234375 12.0625 62.25 14.75 
L 62.25 28.078125 
z
" id="ArialMT-71"/>
     <path d="M 40.4375 6.390625 
Q 35.546875 2.25 31.03125 0.53125 
Q 26.515625 -1.171875 21.34375 -1.171875 
Q 12.796875 -1.171875 8.203125 3 
Q 3.609375 7.171875 3.609375 13.671875 
Q 3.609375 17.484375 5.34375 20.625 
Q 7.078125 23.78125 9.890625 25.6875 
Q 12.703125 27.59375 16.21875 28.5625 
Q 18.796875 29.25 24.03125 29.890625 
Q 34.671875 31.15625 39.703125 32.90625 
Q 39.75 34.71875 39.75 35.203125 
Q 39.75 40.578125 37.25 42.78125 
Q 33.890625 45.75 27.25 45.75 
Q 21.046875 45.75 18.09375 43.578125 
Q 15.140625 41.40625 13.71875 35.890625 
L 5.125 37.0625 
Q 6.296875 42.578125 8.984375 45.96875 
Q 11.671875 49.359375 16.75 51.1875 
Q 21.828125 53.03125 28.515625 53.03125 
Q 35.15625 53.03125 39.296875 51.46875 
Q 43.453125 49.90625 45.40625 47.53125 
Q 47.359375 45.171875 48.140625 41.546875 
Q 48.578125 39.3125 48.578125 33.453125 
L 48.578125 21.734375 
Q 48.578125 9.46875 49.140625 6.21875 
Q 49.703125 2.984375 51.375 0 
L 42.1875 0 
Q 40.828125 2.734375 40.4375 6.390625 
z
M 39.703125 26.03125 
Q 34.90625 24.078125 25.34375 22.703125 
Q 19.921875 21.921875 17.671875 20.9375 
Q 15.4375 19.96875 14.203125 18.09375 
Q 12.984375 16.21875 12.984375 13.921875 
Q 12.984375 10.40625 15.640625 8.0625 
Q 18.3125 5.71875 23.4375 5.71875 
Q 28.515625 5.71875 32.46875 7.9375 
Q 36.421875 10.15625 38.28125 14.015625 
Q 39.703125 17 39.703125 22.796875 
z
" id="ArialMT-97"/>
     <path d="M 40.578125 0 
L 40.578125 7.625 
Q 34.515625 -1.171875 24.125 -1.171875 
Q 19.53125 -1.171875 15.546875 0.578125 
Q 11.578125 2.34375 9.640625 5 
Q 7.71875 7.671875 6.9375 11.53125 
Q 6.390625 14.109375 6.390625 19.734375 
L 6.390625 51.859375 
L 15.1875 51.859375 
L 15.1875 23.09375 
Q 15.1875 16.21875 15.71875 13.8125 
Q 16.546875 10.359375 19.234375 8.375 
Q 21.921875 6.390625 25.875 6.390625 
Q 29.828125 6.390625 33.296875 8.421875 
Q 36.765625 10.453125 38.203125 13.9375 
Q 39.65625 17.4375 39.65625 24.078125 
L 39.65625 51.859375 
L 48.4375 51.859375 
L 48.4375 0 
z
" id="ArialMT-117"/>
     <path d="M 3.078125 15.484375 
L 11.765625 16.84375 
Q 12.5 11.625 15.84375 8.84375 
Q 19.1875 6.0625 25.203125 6.0625 
Q 31.25 6.0625 34.171875 8.515625 
Q 37.109375 10.984375 37.109375 14.3125 
Q 37.109375 17.28125 34.515625 19 
Q 32.71875 20.171875 25.53125 21.96875 
Q 15.875 24.421875 12.140625 26.203125 
Q 8.40625 27.984375 6.46875 31.125 
Q 4.546875 34.28125 4.546875 38.09375 
Q 4.546875 41.546875 6.125 44.5 
Q 7.71875 47.46875 10.453125 49.421875 
Q 12.5 50.921875 16.03125 51.96875 
Q 19.578125 53.03125 23.640625 53.03125 
Q 29.734375 53.03125 34.34375 51.265625 
Q 38.96875 49.515625 41.15625 46.5 
Q 43.359375 43.5 44.1875 38.484375 
L 35.59375 37.3125 
Q 35.015625 41.3125 32.203125 43.546875 
Q 29.390625 45.796875 24.265625 45.796875 
Q 18.21875 45.796875 15.625 43.796875 
Q 13.03125 41.796875 13.03125 39.109375 
Q 13.03125 37.40625 14.109375 36.03125 
Q 15.1875 34.625 17.484375 33.6875 
Q 18.796875 33.203125 25.25 31.453125 
Q 34.578125 28.953125 38.25 27.359375 
Q 41.9375 25.78125 44.03125 22.75 
Q 46.140625 19.734375 46.140625 15.234375 
Q 46.140625 10.84375 43.578125 6.953125 
Q 41.015625 3.078125 36.171875 0.953125 
Q 31.34375 -1.171875 25.25 -1.171875 
Q 15.140625 -1.171875 9.84375 3.03125 
Q 4.546875 7.234375 3.078125 15.484375 
z
" id="ArialMT-115"/>
     <path d="M 6.640625 61.46875 
L 6.640625 71.578125 
L 15.4375 71.578125 
L 15.4375 61.46875 
z
M 6.640625 0 
L 6.640625 51.859375 
L 15.4375 51.859375 
L 15.4375 0 
z
" id="ArialMT-105"/>
    </defs>
    <g style="fill:#262626;" transform="translate(218.1525 41.52)scale(0.12 -0.12)">
     <use xlink:href="#ArialMT-104"/>
     <use x="55.615234" xlink:href="#ArialMT-61"/>
     <use x="114.013672" xlink:href="#ArialMT-49"/>
     <use x="169.628906" xlink:href="#ArialMT-44"/>
     <use x="197.412109" xlink:href="#ArialMT-32"/>
     <use x="225.195312" xlink:href="#ArialMT-75"/>
     <use x="291.894531" xlink:href="#ArialMT-101"/>
     <use x="347.509766" xlink:href="#ArialMT-114"/>
     <use x="380.810547" xlink:href="#ArialMT-110"/>
     <use x="436.425781" xlink:href="#ArialMT-101"/>
     <use x="492.041016" xlink:href="#ArialMT-108"/>
     <use x="514.257812" xlink:href="#ArialMT-61"/>
     <use x="572.65625" xlink:href="#ArialMT-71"/>
     <use x="650.439453" xlink:href="#ArialMT-97"/>
     <use x="706.054688" xlink:href="#ArialMT-117"/>
     <use x="761.669922" xlink:href="#ArialMT-115"/>
     <use x="811.669922" xlink:href="#ArialMT-115"/>
     <use x="861.669922" xlink:href="#ArialMT-105"/>
     <use x="883.886719" xlink:href="#ArialMT-97"/>
     <use x="939.501953" xlink:href="#ArialMT-110"/>
     <use x="995.117188" xlink:href="#ArialMT-75"/>
     <use x="1061.816406" xlink:href="#ArialMT-101"/>
     <use x="1117.431641" xlink:href="#ArialMT-114"/>
     <use x="1150.732422" xlink:href="#ArialMT-110"/>
     <use x="1206.347656" xlink:href="#ArialMT-101"/>
     <use x="1261.962891" xlink:href="#ArialMT-108"/>
    </g>
   </g>
   <g id="legend_1">
    <g id="patch_7">
     <path d="M 449.165625 99.955938 
L 513.4 99.955938 
Q 515.4 99.955938 515.4 97.955938 
L 515.4 56.52 
Q 515.4 54.52 513.4 54.52 
L 449.165625 54.52 
Q 447.165625 54.52 447.165625 56.52 
L 447.165625 97.955938 
Q 447.165625 99.955938 449.165625 99.955938 
z
" style="fill:#464649;opacity:0.5;stroke:#464649;stroke-linejoin:miter;stroke-width:0.3;"/>
    </g>
    <g id="patch_8">
     <path d="M 447.165625 97.955938 
L 511.4 97.955938 
Q 513.4 97.955938 513.4 95.955938 
L 513.4 54.52 
Q 513.4 52.52 511.4 52.52 
L 447.165625 52.52 
Q 445.165625 52.52 445.165625 54.52 
L 445.165625 95.955938 
Q 445.165625 97.955938 447.165625 97.955938 
z
" style="fill:#eaeaf2;stroke:#cccccc;stroke-linejoin:miter;stroke-width:0.3;"/>
    </g>
    <g id="line2d_31">
     <path d="M 449.165625 60.177813 
L 469.165625 60.177813 
" style="fill:none;stroke:#006ba4;stroke-dasharray:6.475,2.8;stroke-dashoffset:0;stroke-width:1.75;"/>
    </g>
    <g id="line2d_32"/>
    <g id="text_16">
     <!-- truth -->
     <defs>
      <path d="M 25.78125 7.859375 
L 27.046875 0.09375 
Q 23.34375 -0.6875 20.40625 -0.6875 
Q 15.625 -0.6875 12.984375 0.828125 
Q 10.359375 2.34375 9.28125 4.8125 
Q 8.203125 7.28125 8.203125 15.1875 
L 8.203125 45.015625 
L 1.765625 45.015625 
L 1.765625 51.859375 
L 8.203125 51.859375 
L 8.203125 64.703125 
L 16.9375 69.96875 
L 16.9375 51.859375 
L 25.78125 51.859375 
L 25.78125 45.015625 
L 16.9375 45.015625 
L 16.9375 14.703125 
Q 16.9375 10.9375 17.40625 9.859375 
Q 17.875 8.796875 18.921875 8.15625 
Q 19.96875 7.515625 21.921875 7.515625 
Q 23.390625 7.515625 25.78125 7.859375 
z
" id="ArialMT-116"/>
     </defs>
     <g style="fill:#262626;" transform="translate(477.165625 63.677813)scale(0.1 -0.1)">
      <use xlink:href="#ArialMT-116"/>
      <use x="27.783203" xlink:href="#ArialMT-114"/>
      <use x="61.083984" xlink:href="#ArialMT-117"/>
      <use x="116.699219" xlink:href="#ArialMT-116"/>
      <use x="144.482422" xlink:href="#ArialMT-104"/>
     </g>
    </g>
    <g id="line2d_33">
     <path d="M 449.165625 74.323125 
L 469.165625 74.323125 
" style="fill:none;stroke:#ff800e;stroke-linecap:round;stroke-width:1.75;"/>
    </g>
    <g id="line2d_34"/>
    <g id="text_17">
     <!-- pred -->
     <defs>
      <path d="M 6.59375 -19.875 
L 6.59375 51.859375 
L 14.59375 51.859375 
L 14.59375 45.125 
Q 17.4375 49.078125 21 51.046875 
Q 24.5625 53.03125 29.640625 53.03125 
Q 36.28125 53.03125 41.359375 49.609375 
Q 46.4375 46.1875 49.015625 39.953125 
Q 51.609375 33.734375 51.609375 26.3125 
Q 51.609375 18.359375 48.75 11.984375 
Q 45.90625 5.609375 40.453125 2.21875 
Q 35.015625 -1.171875 29 -1.171875 
Q 24.609375 -1.171875 21.109375 0.6875 
Q 17.625 2.546875 15.375 5.375 
L 15.375 -19.875 
z
M 14.546875 25.640625 
Q 14.546875 15.625 18.59375 10.84375 
Q 22.65625 6.0625 28.421875 6.0625 
Q 34.28125 6.0625 38.453125 11.015625 
Q 42.625 15.96875 42.625 26.375 
Q 42.625 36.28125 38.546875 41.203125 
Q 34.46875 46.140625 28.8125 46.140625 
Q 23.1875 46.140625 18.859375 40.890625 
Q 14.546875 35.640625 14.546875 25.640625 
z
" id="ArialMT-112"/>
      <path d="M 40.234375 0 
L 40.234375 6.546875 
Q 35.296875 -1.171875 25.734375 -1.171875 
Q 19.53125 -1.171875 14.328125 2.25 
Q 9.125 5.671875 6.265625 11.796875 
Q 3.421875 17.921875 3.421875 25.875 
Q 3.421875 33.640625 6 39.96875 
Q 8.59375 46.296875 13.765625 49.65625 
Q 18.953125 53.03125 25.34375 53.03125 
Q 30.03125 53.03125 33.6875 51.046875 
Q 37.359375 49.078125 39.65625 45.90625 
L 39.65625 71.578125 
L 48.390625 71.578125 
L 48.390625 0 
z
M 12.453125 25.875 
Q 12.453125 15.921875 16.640625 10.984375 
Q 20.84375 6.0625 26.5625 6.0625 
Q 32.328125 6.0625 36.34375 10.765625 
Q 40.375 15.484375 40.375 25.140625 
Q 40.375 35.796875 36.265625 40.765625 
Q 32.171875 45.75 26.171875 45.75 
Q 20.3125 45.75 16.375 40.96875 
Q 12.453125 36.1875 12.453125 25.875 
z
" id="ArialMT-100"/>
     </defs>
     <g style="fill:#262626;" transform="translate(477.165625 77.823125)scale(0.1 -0.1)">
      <use xlink:href="#ArialMT-112"/>
      <use x="55.615234" xlink:href="#ArialMT-114"/>
      <use x="88.916016" xlink:href="#ArialMT-101"/>
      <use x="144.53125" xlink:href="#ArialMT-100"/>
     </g>
    </g>
    <g id="PathCollection_2">
     <g>
      <use style="fill:#ff8c00;fill-opacity:0.5;stroke:#ff8c00;stroke-opacity:0.5;stroke-width:0.3;" x="459.165625" xlink:href="#mcfb6f856fd" y="89.343437"/>
     </g>
    </g>
    <g id="text_18">
     <!-- sample -->
     <defs>
      <path d="M 6.59375 0 
L 6.59375 51.859375 
L 14.453125 51.859375 
L 14.453125 44.578125 
Q 16.890625 48.390625 20.9375 50.703125 
Q 25 53.03125 30.171875 53.03125 
Q 35.9375 53.03125 39.625 50.640625 
Q 43.3125 48.25 44.828125 43.953125 
Q 50.984375 53.03125 60.84375 53.03125 
Q 68.5625 53.03125 72.703125 48.75 
Q 76.859375 44.484375 76.859375 35.59375 
L 76.859375 0 
L 68.109375 0 
L 68.109375 32.671875 
Q 68.109375 37.9375 67.25 40.25 
Q 66.40625 42.578125 64.15625 43.984375 
Q 61.921875 45.40625 58.890625 45.40625 
Q 53.421875 45.40625 49.796875 41.765625 
Q 46.1875 38.140625 46.1875 30.125 
L 46.1875 0 
L 37.40625 0 
L 37.40625 33.6875 
Q 37.40625 39.546875 35.25 42.46875 
Q 33.109375 45.40625 28.21875 45.40625 
Q 24.515625 45.40625 21.359375 43.453125 
Q 18.21875 41.5 16.796875 37.734375 
Q 15.375 33.984375 15.375 26.90625 
L 15.375 0 
z
" id="ArialMT-109"/>
     </defs>
     <g style="fill:#262626;" transform="translate(477.165625 91.968437)scale(0.1 -0.1)">
      <use xlink:href="#ArialMT-115"/>
      <use x="50" xlink:href="#ArialMT-97"/>
      <use x="105.615234" xlink:href="#ArialMT-109"/>
      <use x="188.916016" xlink:href="#ArialMT-112"/>
      <use x="244.53125" xlink:href="#ArialMT-108"/>
      <use x="266.748047" xlink:href="#ArialMT-101"/>
     </g>
    </g>
   </g>
  </g>
 </g>
 <defs>
  <clipPath id="p22ffcd19eb">
   <rect height="298.98" width="446.4" x="72" y="47.52"/>
  </clipPath>
 </defs>
</svg>
