<svg width="50" height="50" fill="none" xmlns="http://www.w3.org/2000/svg"><path fill-rule="evenodd" clip-rule="evenodd" d="M15.96 1.85a.35.35 0 00-.35.35v9.813c0 .193.157.35.35.35h6.48a.05.05 0 01.05.05v8.11a.05.05 0 01-.05.05H7.36a.35.35 0 00-.35.35v10.664a.05.05 0 01-.05.05H2.2a.35.35 0 00-.35.35V41.8c0 .193.157.35.35.35h11.64a.35.35 0 00.35-.35v-9.813a.35.35 0 00-.35-.35H9.08a.05.05 0 01-.05-.05v-8.962a.05.05 0 01.05-.05h13.36a.05.05 0 01.05.05v8.962a.05.05 0 01-.05.05h-4.76a.35.35 0 00-.35.35V41.8c0 .193.157.35.35.35h11.64a.35.35 0 00.35-.35v-9.813a.35.35 0 00-.35-.35h-4.76a.05.05 0 01-.05-.05v-8.962a.05.05 0 01.05-.05h13.36a.05.05 0 01.05.05v8.962a.05.05 0 01-.05.05h-4.76a.35.35 0 00-.35.35V41.8c0 .193.157.35.35.35H44.8a.35.35 0 00.35-.35v-9.813a.35.35 0 00-.35-.35h-4.76a.05.05 0 01-.05-.05V20.923a.35.35 0 00-.35-.35H24.56a.05.05 0 01-.05-.05v-8.11a.05.05 0 01.05-.05h6.48a.35.35 0 00.35-.35V2.2a.35.35 0 00-.35-.35H15.96zm1.67 2.052a.05.05 0 01.05-.05h11.64a.05.05 0 01.05.05v6.409a.05.05 0 01-.05.05h-5.606c-.003 0-.009 0-.017-.003a.96.96 0 00-.268-.025.296.296 0 00-.068.011.776.776 0 00-.038.013.06.06 0 01-.02.004H17.68a.05.05 0 01-.05-.05V3.902zM3.87 33.69a.05.05 0 01.05-.05h8.2a.05.05 0 01.05.05v6.409a.05.05 0 01-.05.05h-8.2a.05.05 0 01-.05-.05V33.69zm15.48 0a.05.05 0 01.05-.05h8.2a.05.05 0 01.05.05v6.409a.05.05 0 01-.05.05h-8.2a.05.05 0 01-.05-.05V33.69zm15.48 0a.05.05 0 01.05-.05h8.2a.05.05 0 01.05.05v6.409a.05.05 0 01-.05.05h-8.2a.05.05 0 01-.05-.05V33.69z" fill="#000"/><path d="M48 36.5C48 42.851 42.851 48 36.5 48S25 42.851 25 36.5 30.149 25 36.5 25 48 30.149 48 36.5z" fill="#E75F63"/><path fill-rule="evenodd" clip-rule="evenodd" d="M36.5 46.576c5.565 0 10.076-4.511 10.076-10.076S42.065 26.424 36.5 26.424 26.424 30.935 26.424 36.5 30.935 46.576 36.5 46.576zm0 1.424C42.851 48 48 42.851 48 36.5S42.851 25 36.5 25 25 30.149 25 36.5 30.149 48 36.5 48z" fill="#000"/><path d="M39.826 35.1c0-3.63-2.951-4.595-4.668-4.624-3.626 0-4.668 2.912-4.668 4.625 0 .77-.38 3.61 2.817 6.166 2.893 2.312 6.877.904 7.843-.038.773-.754 1.042-.388 1.444-.171.318.171.648.685.97.428.292-.233-.68-1.76-.68-1.76l-.965-1.37c-.407-.515-.814-1.029-1.051-.857-.283.204-.161.514 0 1.027.16.514.165 1.2-1.042 1.456-1.207.257-.789-1.208-.724-1.456.156-.6.724-2.055.724-3.425z" fill="#fff"/><path fill-rule="evenodd" clip-rule="evenodd" d="M32.032 32.576c-.601.794-.83 1.79-.83 2.525 0 .079-.002.167-.005.265-.014.462-.035 1.131.19 1.963.267.984.888 2.201 2.365 3.382 1.255 1.003 2.764 1.216 4.113 1.05a6.994 6.994 0 001.788-.462c.512-.21.85-.433 1-.58.435-.423.9-.708 1.438-.647.069.008.133.02.193.037l-.644-.913c-.02.151-.063.309-.14.465-.262.542-.807.865-1.526 1.018-.418.089-.869.063-1.228-.228-.34-.277-.439-.667-.467-.933-.05-.487.09-1.011.128-1.15l.006-.021c.044-.169.106-.367.174-.587.226-.728.527-1.701.527-2.66 0-1.59-.63-2.525-1.399-3.089-.8-.587-1.809-.81-2.563-.823-1.59.002-2.544.627-3.12 1.388zm10.853 7.15l.6-.383-.009-.014-.987-1.4-.032-.041c-.188-.238-.419-.53-.64-.737a1.598 1.598 0 00-.47-.321.912.912 0 00-.896.092 1.18 1.18 0 00-.192.172c.152-.613.28-1.318.28-1.993 0-2.04-.845-3.404-1.982-4.238-1.102-.808-2.424-1.083-3.387-1.099h-.012c-2.032 0-3.41.83-4.26 1.952-.827 1.09-1.12 2.407-1.12 3.385 0 .047-.002.11-.004.186-.016.444-.048 1.353.239 2.414.343 1.267 1.13 2.747 2.85 4.122 1.638 1.309 3.567 1.548 5.175 1.352a8.421 8.421 0 002.157-.56c.598-.245 1.12-.552 1.452-.876.155-.151.25-.214.298-.24l.013.008.102.061.014.01c.048.029.112.068.182.106l.032.022a1.898 1.898 0 01.124.102c.064.055.158.136.248.201.11.079.295.2.535.243a1 1 0 00.814-.21.885.885 0 00.322-.684 1.516 1.516 0 00-.065-.44 4.336 4.336 0 00-.296-.72 10.34 10.34 0 00-.438-.78l-.033-.053-.01-.015-.002-.005-.002-.002-.6.382zM40 38.022l-.093.3a8.282 8.282 0 00-.116.383l-.007.024c-.018.07-.044.168-.065.287-.017.099-.026.19-.027.266a1.35 1.35 0 00.441-.161c.069-.045.084-.075.086-.082.011-.022.032-.103-.03-.3l-.027-.086a3.8 3.8 0 01-.162-.631z" fill="#000"/></svg>