<svg width="50" height="50" fill="none" xmlns="http://www.w3.org/2000/svg"><rect x="6" y="26" width="6" height="17" rx="3" fill="#8EB0FC"/><rect x="28" y="26" width="6" height="17" rx="3" fill="#8EB0FC"/><rect x="17" y="15" width="6" height="28" rx="3" fill="#8EB0FC"/><rect x="38" y="15" width="6" height="28" rx="3" fill="#8EB0FC"/><path fill-rule="evenodd" clip-rule="evenodd" d="M5 29a4 4 0 018 0v11a4 4 0 01-8 0V29zm4-2a2 2 0 00-2 2v11a2 2 0 104 0V29a2 2 0 00-2-2zm-4-8a4 4 0 118 0 4 4 0 01-8 0zm4-2a2 2 0 100 4 2 2 0 000-4zM5 9a4 4 0 118 0 4 4 0 01-8 0zm4-2a2 2 0 100 4 2 2 0 000-4zm7 2a4 4 0 118 0 4 4 0 01-8 0zm4-2a2 2 0 100 4 2 2 0 000-4zm7 2a4 4 0 118 0 4 4 0 01-8 0zm4-2a2 2 0 100 4 2 2 0 000-4zm6 2a4 4 0 118 0 4 4 0 01-8 0zm4-2a2 2 0 100 4 2 2 0 000-4zM27 19a4 4 0 118 0 4 4 0 01-8 0zm4-2a2 2 0 100 4 2 2 0 000-4zm-15 1a4 4 0 018 0v22a4 4 0 01-8 0V18zm4-2a2 2 0 00-2 2v22a2 2 0 104 0V18a2 2 0 00-2-2zm7 12a4 4 0 018 0v12a4 4 0 01-8 0V28zm4-2a2 2 0 00-2 2v12a2 2 0 104 0V28a2 2 0 00-2-2zm6-8a4 4 0 018 0v22a4 4 0 01-8 0V18zm4-2a2 2 0 00-2 2v22a2 2 0 104 0V18a2 2 0 00-2-2z" fill="#000"/></svg>