<?xml version="1.0" encoding="UTF-8" standalone="no"?>
<!DOCTYPE svg PUBLIC "-//W3C//DTD SVG 1.1//EN"
 "http://www.w3.org/Graphics/SVG/1.1/DTD/svg11.dtd">
<!-- Generated by graphviz version 2.46.1 (20210213.1702)
 -->
<!-- Title: satlas2_diagram Pages: 1 -->
<svg width="654pt" height="369pt"
 viewBox="0.00 0.00 653.50 369.00" xmlns="http://www.w3.org/2000/svg" xmlns:xlink="http://www.w3.org/1999/xlink">
<g id="graph0" class="graph" transform="scale(1 1) rotate(0) translate(4 365)">
<title>satlas2_diagram</title>
<polygon fill="white" stroke="transparent" points="-4,4 -4,-365 649.5,-365 649.5,4 -4,4"/>
<text text-anchor="middle" x="322.75" y="-345.8" font-family="Helvetica,Arial,sans-serif" font-size="14.00">SATLAS2 architecture overview</text>
<!-- Fitter -->
<g id="node1" class="node">
<title>Fitter</title>
<polygon fill="#f2f2f2" stroke="black" points="288,-301.5 288,-337.5 342,-337.5 342,-301.5 288,-301.5"/>
<text text-anchor="middle" x="315" y="-315.8" font-family="Helvetica,Arial,sans-serif" font-size="14.00">Fitter</text>
</g>
<!-- Datasource1 -->
<g id="node2" class="node">
<title>Datasource1</title>
<polygon fill="#f2f2f2" stroke="black" points="126,-165.5 126,-249.5 306,-249.5 306,-165.5 126,-165.5"/>
<text text-anchor="start" x="184.5" y="-235.3" font-family="Helvetica,Arial,sans-serif" font-weight="bold" font-size="14.00">Source 1</text>
<polyline fill="none" stroke="black" points="126,-226.5 306,-226.5 "/>
<text text-anchor="start" x="163" y="-212.3" font-family="Helvetica,Arial,sans-serif" font-weight="bold" font-size="14.00">Name=scan001</text>
<polyline fill="none" stroke="black" points="126,-203.5 306,-203.5 "/>
<text text-anchor="start" x="134" y="-188.3" font-family="Helvetica,Arial,sans-serif" font-size="14.00">Contains </text>
<text text-anchor="start" x="134" y="-173.3" font-family="Helvetica,Arial,sans-serif" font-size="14.00">x, y, yerr, model response</text>
</g>
<!-- Fitter&#45;&gt;Datasource1 -->
<g id="edge1" class="edge">
<title>Fitter&#45;&gt;Datasource1</title>
<path fill="none" stroke="black" stroke-dasharray="5,2" d="M289.4,-301.44C282.09,-295.98 274.38,-289.63 268,-283 260.7,-275.42 253.68,-266.74 247.28,-258.04"/>
<polygon fill="black" stroke="black" points="241.35,-249.73 250.82,-255.25 244.25,-253.8 247.16,-257.87 247.16,-257.87 247.16,-257.87 244.25,-253.8 243.5,-260.48 241.35,-249.73 241.35,-249.73"/>
<text text-anchor="start" x="268" y="-271.8" font-family="Helvetica,Arial,sans-serif" font-size="14.00">Calculates fit from</text>
</g>
<!-- Datasource2 -->
<g id="node3" class="node">
<title>Datasource2</title>
<polygon fill="#f2f2f2" stroke="black" points="324,-165.5 324,-249.5 504,-249.5 504,-165.5 324,-165.5"/>
<text text-anchor="start" x="382.5" y="-235.3" font-family="Helvetica,Arial,sans-serif" font-weight="bold" font-size="14.00">Source 2</text>
<polyline fill="none" stroke="black" points="324,-226.5 504,-226.5 "/>
<text text-anchor="start" x="361" y="-212.3" font-family="Helvetica,Arial,sans-serif" font-weight="bold" font-size="14.00">Name=scan002</text>
<polyline fill="none" stroke="black" points="324,-203.5 504,-203.5 "/>
<text text-anchor="start" x="332" y="-188.3" font-family="Helvetica,Arial,sans-serif" font-size="14.00">Contains </text>
<text text-anchor="start" x="332" y="-173.3" font-family="Helvetica,Arial,sans-serif" font-size="14.00">x, y, yerr, model response</text>
</g>
<!-- Fitter&#45;&gt;Datasource2 -->
<g id="edge2" class="edge">
<title>Fitter&#45;&gt;Datasource2</title>
<path fill="none" stroke="black" stroke-dasharray="5,2" d="M342.03,-309.49C355.8,-303.74 371.93,-295.07 383,-283 389.33,-276.1 394.46,-267.72 398.6,-259.12"/>
<polygon fill="black" stroke="black" points="402.7,-249.74 402.81,-260.71 400.7,-254.32 398.69,-258.9 398.69,-258.9 398.69,-258.9 400.7,-254.32 394.57,-257.1 402.7,-249.74 402.7,-249.74"/>
</g>
<!-- Model1 -->
<g id="node4" class="node">
<title>Model1</title>
<polygon fill="#f2f2f2" stroke="black" points="0,-29.5 0,-113.5 138,-113.5 138,-29.5 0,-29.5"/>
<text text-anchor="start" x="31" y="-99.3" font-family="Helvetica,Arial,sans-serif" font-weight="bold" font-size="14.00">HFS model</text>
<polyline fill="none" stroke="black" points="0,-90.5 138,-90.5 "/>
<text text-anchor="start" x="23.5" y="-76.3" font-family="Helvetica,Arial,sans-serif" font-weight="bold" font-size="14.00">Name=Pb208</text>
<polyline fill="none" stroke="black" points="0,-67.5 138,-67.5 "/>
<text text-anchor="start" x="8" y="-52.3" font-family="Helvetica,Arial,sans-serif" font-size="14.00">Contains </text>
<text text-anchor="start" x="8" y="-37.3" font-family="Helvetica,Arial,sans-serif" font-size="14.00">hyperfine spectrum</text>
</g>
<!-- Datasource1&#45;&gt;Model1 -->
<g id="edge3" class="edge">
<title>Datasource1&#45;&gt;Model1</title>
<path fill="none" stroke="black" d="M148.26,-165.34C140.45,-159.55 132.85,-153.39 126,-147 117.89,-139.43 110.06,-130.61 102.93,-121.74"/>
<polygon fill="none" stroke="black" points="105.5,-119.35 96.59,-113.62 99.99,-123.66 105.5,-119.35"/>
<text text-anchor="start" x="126" y="-135.8" font-family="Helvetica,Arial,sans-serif" font-size="14.00">Sums together</text>
</g>
<!-- Model2 -->
<g id="node5" class="node">
<title>Model2</title>
<polygon fill="#f2f2f2" stroke="black" points="156.5,-29.5 156.5,-113.5 309.5,-113.5 309.5,-29.5 156.5,-29.5"/>
<text text-anchor="start" x="164.5" y="-99.3" font-family="Helvetica,Arial,sans-serif" font-weight="bold" font-size="14.00">Background model </text>
<polyline fill="none" stroke="black" points="156.5,-90.5 309.5,-90.5 "/>
<text text-anchor="start" x="192" y="-76.3" font-family="Helvetica,Arial,sans-serif" font-weight="bold" font-size="14.00">Name=bkg1</text>
<polyline fill="none" stroke="black" points="156.5,-67.5 309.5,-67.5 "/>
<text text-anchor="start" x="167" y="-52.3" font-family="Helvetica,Arial,sans-serif" font-size="14.00">Contains </text>
<text text-anchor="start" x="167" y="-37.3" font-family="Helvetica,Arial,sans-serif" font-size="14.00">constant background</text>
</g>
<!-- Datasource1&#45;&gt;Model2 -->
<g id="edge4" class="edge">
<title>Datasource1&#45;&gt;Model2</title>
<path fill="none" stroke="black" d="M221.24,-165.2C222.89,-152.21 224.73,-137.7 226.46,-124.09"/>
<polygon fill="none" stroke="black" points="229.96,-124.25 227.75,-113.89 223.02,-123.37 229.96,-124.25"/>
</g>
<!-- Model3 -->
<g id="node6" class="node">
<title>Model3</title>
<polygon fill="#f2f2f2" stroke="black" points="336,-29.5 336,-113.5 474,-113.5 474,-29.5 336,-29.5"/>
<text text-anchor="start" x="367" y="-99.3" font-family="Helvetica,Arial,sans-serif" font-weight="bold" font-size="14.00">HFS model</text>
<polyline fill="none" stroke="black" points="336,-90.5 474,-90.5 "/>
<text text-anchor="start" x="359.5" y="-76.3" font-family="Helvetica,Arial,sans-serif" font-weight="bold" font-size="14.00">Name=Pb208</text>
<polyline fill="none" stroke="black" points="336,-67.5 474,-67.5 "/>
<text text-anchor="start" x="344" y="-52.3" font-family="Helvetica,Arial,sans-serif" font-size="14.00">Contains </text>
<text text-anchor="start" x="344" y="-37.3" font-family="Helvetica,Arial,sans-serif" font-size="14.00">hyperfine spectrum</text>
</g>
<!-- Datasource2&#45;&gt;Model3 -->
<g id="edge5" class="edge">
<title>Datasource2&#45;&gt;Model3</title>
<path fill="none" stroke="black" d="M411.23,-165.2C410.35,-152.21 409.38,-137.7 408.46,-124.09"/>
<polygon fill="none" stroke="black" points="411.94,-123.64 407.78,-113.89 404.96,-124.1 411.94,-123.64"/>
</g>
<!-- Model4 -->
<g id="node7" class="node">
<title>Model4</title>
<polygon fill="#f2f2f2" stroke="black" points="492.5,-29.5 492.5,-113.5 645.5,-113.5 645.5,-29.5 492.5,-29.5"/>
<text text-anchor="start" x="500.5" y="-99.3" font-family="Helvetica,Arial,sans-serif" font-weight="bold" font-size="14.00">Background model </text>
<polyline fill="none" stroke="black" points="492.5,-90.5 645.5,-90.5 "/>
<text text-anchor="start" x="528" y="-76.3" font-family="Helvetica,Arial,sans-serif" font-weight="bold" font-size="14.00">Name=bkg2</text>
<polyline fill="none" stroke="black" points="492.5,-67.5 645.5,-67.5 "/>
<text text-anchor="start" x="503" y="-52.3" font-family="Helvetica,Arial,sans-serif" font-size="14.00">Contains </text>
<text text-anchor="start" x="503" y="-37.3" font-family="Helvetica,Arial,sans-serif" font-size="14.00">constant background</text>
</g>
<!-- Datasource2&#45;&gt;Model4 -->
<g id="edge6" class="edge">
<title>Datasource2&#45;&gt;Model4</title>
<path fill="none" stroke="black" d="M461.77,-165.2C478.2,-151 496.73,-134.98 513.71,-120.3"/>
<polygon fill="none" stroke="black" points="516.11,-122.85 521.39,-113.66 511.53,-117.55 516.11,-122.85"/>
</g>
<!-- Model3&#45;&gt;Model1 -->
<g id="edge7" class="edge">
<title>Model3:s&#45;&gt;Model1:s</title>
<path fill="none" stroke="black" stroke-dasharray="5,2" d="M405,-29C405,-12.16 131.42,-10.51 77.99,-24.07"/>
<polygon fill="none" stroke="black" points="76.08,-21.12 69,-29 79.45,-27.25 76.08,-21.12"/>
<text text-anchor="start" x="29.18" y="-3.8" font-family="Helvetica,Arial,sans-serif" font-size="14.00">Shares selected parameters with</text>
</g>
</g>
</svg>
