<svg width="32" height="32" viewBox="0 0 80 80" fill="none" xmlns="http://www.w3.org/2000/svg" style="fill:currentColor;stroke:none;stroke-width:8;stroke-linecap:round;stroke-linejoin:round">
<path d="M22.5116 26.4836L9.05542 50.0319C6.86334 53.868 8.19612 58.7548 12.0323 60.9469C15.8684 63.139 20.7552 61.8062 22.9473 57.9701L28.4858 48.2777L22.867 28.6119C22.6644 27.903 22.548 27.1898 22.5116 26.4836Z" />
<path d="M39.709 23.8578C40.2609 25.8431 40.0504 28.0396 38.9473 29.9701L29.5258 46.4577L24.3093 28.1998C23.0955 23.9515 25.5554 19.5237 29.8037 18.3099C33.2967 17.3119 36.9111 18.7974 38.7606 21.7186C39.0234 22.1342 39.2462 22.5717 39.4275 23.0248C39.5284 23.2772 39.6174 23.5372 39.6937 23.8043L39.709 23.8578Z" />
<path d="M46.5116 26.4836L43.5167 31.7247L49.1359 51.3922C49.3383 52.1004 49.4547 52.8128 49.4912 53.5182L52.4858 48.2777L46.867 28.6119C46.6644 27.903 46.548 27.1898 46.5116 26.4836Z"/>
<path d="M63.709 23.8578C64.2609 25.8431 64.0504 28.0396 62.9473 29.9701L53.5258 46.4577L48.3093 28.1998C47.0955 23.9515 49.5554 19.5237 53.8037 18.3099C57.2968 17.3119 60.9112 18.7975 62.7607 21.7188C63.0234 22.1343 63.2463 22.5717 63.4275 23.0248C63.5284 23.2772 63.6174 23.5372 63.6937 23.8043L63.709 23.8578Z" />
<path d="M46.9473 57.9701L46.9963 57.8844C47.9893 56.0952 48.3002 53.9273 47.6937 51.8043L42.4766 33.5447L33.0554 50.0319C30.8633 53.868 32.1961 58.7548 36.0323 60.9469C39.8684 63.139 44.7552 61.8062 46.9473 57.9701Z" />
<path d="M64.0015 62.002C68.4197 62.002 72.0015 58.4202 72.0015 54.002C72.0015 49.5837 68.4197 46.002 64.0015 46.002C59.5832 46.002 56.0015 49.5837 56.0015 54.002C56.0015 58.4202 59.5832 62.002 64.0015 62.002Z"/>
</svg>