<?xml version="1.0" encoding="UTF-8" standalone="no"?>

<svg viewBox="0 0 249 104" fill="none" xmlns="http://www.w3.org/2000/svg">
<path d="M129.07 33.875H134.648L143.977 59.5625L153.281 33.875H158.883L146.203 68H141.727L129.07 33.875ZM126.258 33.875H131.719L132.703 57.4766V68H126.258V33.875ZM156.211 33.875H161.695V68H155.25V57.4766L156.211 33.875ZM173.834 48.1953H177.327C178.561 48.1953 179.577 47.9844 180.373 47.5625C181.186 47.125 181.787 46.5312 182.178 45.7812C182.584 45.0156 182.787 44.1328 182.787 43.1328C182.787 42.1484 182.608 41.2969 182.248 40.5781C181.889 39.8438 181.342 39.2812 180.608 38.8906C179.889 38.4844 178.967 38.2812 177.842 38.2812C176.936 38.2812 176.1 38.4609 175.334 38.8203C174.584 39.1797 173.983 39.6953 173.53 40.3672C173.092 41.0234 172.873 41.8125 172.873 42.7344H166.662C166.662 40.8906 167.147 39.2734 168.116 37.8828C169.1 36.4766 170.428 35.375 172.1 34.5781C173.772 33.7812 175.639 33.3828 177.702 33.3828C179.952 33.3828 181.92 33.7578 183.608 34.5078C185.311 35.2422 186.631 36.3281 187.569 37.7656C188.522 39.2031 188.998 40.9844 188.998 43.1094C188.998 44.125 188.756 45.1406 188.272 46.1562C187.803 47.1562 187.108 48.0625 186.186 48.875C185.28 49.6719 184.162 50.3203 182.834 50.8203C181.522 51.3047 180.014 51.5469 178.311 51.5469H173.834V48.1953ZM173.834 52.9766V49.6719H178.311C180.233 49.6719 181.897 49.8984 183.303 50.3516C184.725 50.7891 185.897 51.4141 186.819 52.2266C187.741 53.0234 188.42 53.9531 188.858 55.0156C189.311 56.0781 189.537 57.2188 189.537 58.4375C189.537 60.0312 189.241 61.4531 188.647 62.7031C188.053 63.9375 187.217 64.9844 186.139 65.8438C185.077 66.7031 183.827 67.3594 182.389 67.8125C180.952 68.25 179.397 68.4688 177.725 68.4688C176.272 68.4688 174.858 68.2734 173.483 67.8828C172.123 67.4766 170.897 66.875 169.803 66.0781C168.709 65.2656 167.842 64.25 167.202 63.0312C166.561 61.7969 166.241 60.3672 166.241 58.7422H172.452C172.452 59.6797 172.678 60.5156 173.131 61.25C173.6 61.9844 174.241 62.5625 175.053 62.9844C175.881 63.3906 176.811 63.5938 177.842 63.5938C178.983 63.5938 179.959 63.3906 180.772 62.9844C181.6 62.5625 182.233 61.9688 182.67 61.2031C183.108 60.4219 183.327 59.4922 183.327 58.4141C183.327 57.1328 183.084 56.0938 182.6 55.2969C182.116 54.5 181.42 53.9141 180.514 53.5391C179.623 53.1641 178.561 52.9766 177.327 52.9766H173.834ZM216.536 62.9375V68H199.38V62.9375H216.536ZM201.325 33.875V68H194.88V33.875H201.325ZM230.644 68H223.284L223.331 62.9375H230.644C232.628 62.9375 234.292 62.5 235.636 61.625C236.98 60.7344 237.995 59.4609 238.683 57.8047C239.37 56.1328 239.714 54.1328 239.714 51.8047V50.0469C239.714 48.25 239.519 46.6641 239.128 45.2891C238.738 43.9141 238.159 42.7578 237.394 41.8203C236.644 40.8828 235.714 40.1719 234.605 39.6875C233.495 39.2031 232.222 38.9609 230.784 38.9609H223.144V33.875H230.784C233.066 33.875 235.144 34.2578 237.019 35.0234C238.909 35.7891 240.542 36.8906 241.917 38.3281C243.308 39.75 244.37 41.4531 245.105 43.4375C245.855 45.4219 246.23 47.6406 246.23 50.0938V51.8047C246.23 54.2422 245.855 56.4609 245.105 58.4609C244.37 60.4453 243.308 62.1484 241.917 63.5703C240.542 64.9922 238.902 66.0859 236.995 66.8516C235.089 67.6172 232.972 68 230.644 68ZM226.894 33.875V68H220.448V33.875H226.894Z" fill="#1a202c"/>
<path d="M29.2651 34.4286L11.7721 65.0413C8.92237 70.0283 10.655 76.3812 15.642 79.2309C20.6289 82.0806 26.9818 80.348 29.8315 75.361L37.0316 62.761L29.7271 37.1954C29.4638 36.2738 29.3125 35.3466 29.2651 34.4286Z" fill="#1a202c"/>
<path d="M51.6217 31.0151C52.3392 33.5959 52.0656 36.4514 50.6315 38.961L38.3836 60.3949L31.6021 36.6597C30.0242 31.1369 33.2221 25.3807 38.7448 23.8027C43.2857 22.5053 47.9845 24.4366 50.3888 28.2341C50.7304 28.7743 51.0201 29.3431 51.2558 29.9321C51.3869 30.2603 51.5026 30.5983 51.6018 30.9455L51.6217 31.0151Z" fill="#1a202c"/>
<path d="M60.4651 34.4286L56.5717 41.242L63.8768 66.8098C64.1398 67.7304 64.2911 68.6565 64.3386 69.5736L68.2316 62.761L60.9271 37.1954C60.6638 36.2738 60.5125 35.3466 60.4651 34.4286Z" fill="#1a202c"/>
<path d="M82.8217 31.0151C83.5392 33.596 83.2656 36.4514 81.8315 38.961L69.5836 60.3949L62.8021 36.6597C61.2241 31.1369 64.4221 25.3807 69.9448 23.8027C74.4858 22.5053 79.1846 24.4367 81.5889 28.2343C81.9305 28.7745 82.2202 29.3431 82.4558 29.9321C82.5869 30.2603 82.7026 30.5983 82.8018 30.9455L82.8217 31.0151Z" fill="#1a202c"/>
<path d="M61.0315 75.361L61.0952 75.2496C62.3862 72.9237 62.7903 70.1054 62.0018 67.3455L55.2197 43.6081L42.9721 65.0413C40.1224 70.0283 41.855 76.3812 46.842 79.2309C51.8289 82.0806 58.1818 80.348 61.0315 75.361Z" fill="#1a202c"/>
<path d="M83.2019 80.6024C88.9457 80.6024 93.6019 75.9462 93.6019 70.2024C93.6019 64.4587 88.9457 59.8024 83.2019 59.8024C77.4582 59.8024 72.8019 64.4587 72.8019 70.2024C72.8019 75.9462 77.4582 80.6024 83.2019 80.6024Z" fill="#1a202c"/>
</svg>